<?xml version="1.0" encoding="utf-8"?>
<!-- Generator: Adobe Illustrator 16.0.0, SVG Export Plug-In . SVG Version: 6.00 Build 0)  -->
<!DOCTYPE svg PUBLIC "-//W3C//DTD SVG 1.1//EN" "http://www.w3.org/Graphics/SVG/1.1/DTD/svg11.dtd">
<svg version="1.1" id="Layer_1" xmlns="http://www.w3.org/2000/svg" xmlns:xlink="http://www.w3.org/1999/xlink" x="0px" y="0px"
	 width="170px" height="35px" viewBox="0 0 170 35" enable-background="new 0 0 170 35" xml:space="preserve">
<path fill="#888888" d="M126.795,20.72h-1.354c-0.16-0.59-0.382-1.152-0.66-1.679l0.954-0.995c0.328-0.346,0.327-0.903,0-1.248
	l-1.788-1.865c-0.326-0.344-0.859-0.344-1.189,0l-0.955,0.997c-0.501-0.292-1.04-0.523-1.604-0.691v-1.414
	c0-0.485-0.379-0.881-0.843-0.881h-2.524c-0.467,0-0.843,0.396-0.843,0.881v1.414c-0.564,0.167-1.106,0.399-1.604,0.691
	l-0.956-0.997c-0.326-0.344-0.861-0.345-1.188,0l-1.789,1.865c-0.328,0.345-0.328,0.902,0,1.248l0.954,0.995
	c-0.277,0.526-0.501,1.089-0.659,1.679h-1.353c-0.467,0-0.844,0.393-0.844,0.879v2.639c0,0.486,0.377,0.88,0.844,0.88h1.353
	c0.158,0.591,0.382,1.155,0.659,1.679l-0.953,0.996c-0.329,0.345-0.329,0.901,0,1.243l1.788,1.869c0.326,0.344,0.861,0.344,1.188,0
	l0.955-0.999c0.498,0.295,1.041,0.522,1.604,0.693v1.412c0,0.488,0.376,0.88,0.843,0.88h2.524c0.464,0,0.843-0.392,0.843-0.88
	v-1.412c0.563-0.171,1.103-0.398,1.604-0.693l0.955,0.999c0.33,0.344,0.863,0.344,1.189,0l1.788-1.866
	c0.328-0.345,0.327-0.901,0-1.246l-0.954-0.996c0.278-0.527,0.5-1.088,0.66-1.679h1.354c0.464,0,0.839-0.394,0.839-0.88v-2.639
	C127.634,21.112,127.259,20.72,126.795,20.72z M118.093,27.464c-2.403,0-4.351-2.035-4.351-4.546c0-2.51,1.947-4.547,4.351-4.547
	s4.351,2.037,4.351,4.547C122.443,25.429,120.496,27.464,118.093,27.464z"/>
<path fill="#FFFFFF" d="M129.095,11.335l0.59-1.494c0.107-0.277-0.02-0.592-0.285-0.711l-0.769-0.338
	c0.04-0.365,0.034-0.738-0.006-1.113l0.764-0.326c0.266-0.109,0.391-0.427,0.28-0.702l-0.602-1.504
	c-0.112-0.277-0.417-0.41-0.679-0.3l-0.771,0.324c-0.227-0.296-0.477-0.566-0.757-0.794l0.315-0.799
	c0.107-0.273-0.02-0.592-0.285-0.709l-1.441-0.635c-0.263-0.118-0.568,0.009-0.675,0.285l-0.314,0.798
	c-0.352-0.045-0.708-0.049-1.068-0.01l-0.323-0.803c-0.112-0.279-0.415-0.412-0.679-0.303l-1.435,0.606
	c-0.266,0.114-0.389,0.427-0.278,0.703l0.324,0.806c-0.282,0.233-0.535,0.492-0.754,0.78l-0.769-0.34
	c-0.267-0.117-0.569,0.01-0.675,0.287l-0.595,1.492c-0.105,0.274,0.023,0.591,0.285,0.708l0.772,0.341
	c-0.038,0.366-0.034,0.738,0.006,1.113l-0.769,0.324c-0.263,0.111-0.387,0.427-0.276,0.705l0.603,1.504
	c0.11,0.276,0.415,0.411,0.678,0.299l0.769-0.325c0.226,0.297,0.479,0.566,0.76,0.797l-0.317,0.796
	c-0.104,0.275,0.02,0.595,0.284,0.711l1.443,0.635c0.264,0.115,0.565-0.012,0.675-0.285l0.314-0.799
	c0.353,0.045,0.709,0.05,1.068,0.01l0.323,0.804c0.111,0.277,0.413,0.413,0.679,0.301l1.435-0.605
	c0.263-0.111,0.387-0.426,0.276-0.704l-0.323-0.806c0.282-0.231,0.537-0.492,0.754-0.778l0.771,0.34
	C128.683,11.735,128.987,11.609,129.095,11.335z M124.983,10.777c-1.362,0.577-2.934-0.114-3.506-1.546
	c-0.571-1.43,0.069-3.057,1.433-3.632c1.365-0.58,2.937,0.112,3.508,1.546C126.989,8.575,126.351,10.203,124.983,10.777z"/>
<path fill="#FFFFFF" d="M34.172,19.137c0-0.602-0.638-0.606-0.638-0.606H24.54c0,0-0.384,0-0.573,0.19
	c-0.188,0.189-0.178,0.467-0.178,0.467l0.013,3.016c0,0,0.001,0.129,0.154,0.3c0.156,0.174,0.562,0.178,0.562,0.178h3.542
	c0,0,0.27,0.011,0.445,0.165c0.155,0.135,0.125,0.402,0.125,0.402l0.001,0.386c0,1.355-0.477,2.477-1.431,3.36
	c-0.953,0.887-2.287,1.33-3.999,1.33c-2.325,0-4.012-0.747-5.063-2.242c-1.076-1.519-1.615-3.87-1.615-7.058
	c0-2.892,0.574-5.135,1.726-6.728c1.123-1.568,2.849-2.352,5.171-2.352c1.761,0,3.047,0.465,3.853,1.393
	c0.727,0.843,1.2,1.98,1.421,3.413c0.017,0.108,0.009,0.129,0.098,0.23c0.094,0.1,0.344,0.063,0.344,0.063l4.529-0.443
	c0,0,0.125-0.006,0.218-0.117c0.093-0.112,0.06-0.285,0.051-0.374c-0.258-3.066-1.259-5.136-3.06-6.585
	c-1.856-1.492-4.312-2.239-7.363-2.239c-4.151,0-7.325,1.271-9.525,3.817c-2.196,2.543-3.295,5.992-3.295,10.346
	c0,4.084,0.916,7.313,2.751,9.685c1.153,1.509,2.706,2.542,4.657,3.103c1.343,0.446,2.918,0.7,4.739,0.65
	c2.364-0.069,4.517-0.68,6.237-1.651c0.86-0.55,0.846,0.203,0.846,0.203l0.096,0.56c0,0,0.012,0.178,0.136,0.269
	c0.118,0.088,0.332,0.095,0.332,0.095l3.253,0.011c0,0,0.435,0.042,0.426-0.458c0.026-0.414,0.013-9.731,0.007-12.57
	C34.172,19.269,34.172,19.198,34.172,19.137z"/>
<path fill="#FFFFFF" d="M44.628,12.969c-2.739,0-4.989,0.843-6.751,2.533c-1.759,1.687-2.639,4.17-2.639,7.447
	c0,1.395,0.157,2.642,0.476,3.741c0.341,1.148,0.854,2.204,1.541,3.155c0.684,0.953,1.649,1.7,2.899,2.239
	c1.221,0.538,3.128,0.806,4.438,0.806c2.208,0,4.061-0.562,5.43-1.614c1.183-0.892,1.995-2.056,2.439-3.493
	c0.032-0.109-0.053,0.143,0.094-0.333c0.147-0.478-0.012-0.502-0.27-0.558c-0.258-0.059-3.638-0.889-3.638-0.889
	s-0.084-0.018-0.343-0.083c-0.258-0.066-0.351,0.153-0.379,0.267c-0.185,0.695-0.49,1.256-0.91,1.679
	c-0.466,0.464-1.165,0.694-2.093,0.694c-1.271,0-2.214-0.328-2.826-0.989c-0.467-0.486-0.772-1.21-0.906-2.175
	c-0.024-0.153,0.005,0.103-0.054-0.477c-0.059-0.582,0.41-0.649,0.41-0.649h0.54h9.543c0,0-0.175,0.007,0.499,0
	s0.61-0.121,0.641-0.333c0.028-0.217,0.077-1.321,0.077-2.161c0-2.815-0.673-4.979-2.018-6.496
	C49.459,13.74,47.392,12.969,44.628,12.969z M46.764,20.782c-0.224,0.012-0.563,0.014-0.563,0.014l-3.979-0.032
	c0,0-0.676,0.011-0.852-0.014s-0.216-0.199-0.209-0.294c0.081-1.138,0.382-1.984,0.901-2.542c0.586-0.605,1.32-0.908,2.2-0.908
	c1.793,0,2.722,1.172,2.785,3.513C47.048,20.604,46.989,20.774,46.764,20.782z"/>
<path fill="#FFFFFF" d="M84.255,13.312c-0.657-0.026-1.185,0.082-1.694,0.196c-1.484,0.335-2.774,1.156-3.87,2.464
	c-0.203,0.242-0.738,1.184-0.8-0.816c0-1.202-0.041-1.42-1.681-1.417c-1.489,0.002-1.938,0-1.938,0s-1.303,0.057-1.305,1.211
	c-0.001,1.156,0,1.902,0,1.902s0.014,12.441,0.006,14.133c0.012,1.867,0.134,1.897,1.376,1.897c1.157,0,1.587,0.023,2.735-0.004
	c1.529-0.037,1.424-0.055,1.424-1.902c0-1.375,0-2.442,0-2.442s0.007-6.009,0-6.915c-0.007-0.904,0.37-1.489,0.865-1.738
	c0.325-0.195,0.669-0.365,1.032-0.509c0.45-0.18,0.927-0.323,1.435-0.426c0.43-0.09,1.638-0.222,2.488-0.37s0.764-0.988,0.764-0.988
	l0.025-1.939c0,0-0.001,0.025,0.013-0.989C85.143,13.647,85.155,13.312,84.255,13.312z"/>
<path fill="#888888" d="M106.44,6.331c-1.008,0-2.543,0-3.605,0c-1.064,0-1.055,0.085-1.055,1.065s0,6.751,0,8.208
	c0,1.458,0.034,1.512-1.724,1.512s-5.35,0-6.854,0c-1.513,0-1.56,0.024-1.56-1.635c0-1.662,0-5.949,0-7.546
	c0-1.595-0.055-1.603-1.344-1.603c-1.287,0-1.266,0-2.774,0c-1.51,0-1.529,0.097-1.529,1.769c0,1.673,0,21.679,0,23.256
	c-0.017,1.438-0.028,1.535,1.196,1.535c1.223,0,1.78,0,3.106,0c1.33,0,1.345-0.022,1.345-1.246c0-1.223,0-6.858,0-8.207
	s0.009-1.442,1.56-1.442c1.544,0,5.487,0,7.021,0c1.531,0,1.557-0.02,1.557,1.567c0,1.589,0,6.775,0,8.042
	c0,1.268,0.058,1.286,1.386,1.286c1.327,0,1.833,0,3.065,0c1.235,0,1.235,0.006,1.235-1.368c0-1.377,0-22.78,0-24.003
	C107.467,6.295,107.449,6.331,106.44,6.331z"/>
<path fill="#888888" d="M141.87,22.032c-0.711-0.391-1.393-0.682-2.053-0.879c-0.638-0.172-1.48-0.355-2.533-0.552
	c-1.395-0.243-2.386-0.502-2.971-0.769c-0.586-0.247-0.882-0.688-0.882-1.322c0-1.125,0.808-1.687,2.423-1.687
	c0.955,0,1.676,0.219,2.165,0.659c0.327,0.31,0.606,0.732,0.837,1.26c0.096,0.222,0.335,0.69,0.963,0.502
	c0.628-0.19,2.384-0.669,3.159-0.995c0.777-0.326,0.508-0.78,0.4-1.045c-1.088-2.646-3.306-4.052-6.654-4.217
	c-0.225-0.012-1.208-0.044-1.514-0.022c-1.863,0.13-3.448,0.659-4.75,1.584c-1.517,1.075-2.275,2.616-2.275,4.62
	c0,1.103,0.184,2.033,0.551,2.789c0.367,0.758,0.932,1.358,1.688,1.798c0.734,0.417,1.431,0.722,2.092,0.917
	c0.611,0.195,1.453,0.379,2.53,0.551c1.297,0.242,2.229,0.489,2.789,0.732c0.516,0.222,0.771,0.661,0.771,1.321
	c0,1.199-0.915,1.8-2.751,1.8c-1.198,0-2.066-0.258-2.604-0.773c-0.387-0.351-0.698-0.794-0.934-1.331
	c-0.107-0.245-0.313-0.768-1.089-0.531c-0.777,0.238-2.125,0.646-2.962,0.961c-0.837,0.318-0.794,0.348-0.465,1.253
	c0.328,0.907,1.179,2.131,2.256,2.841c1.369,0.931,3.24,1.394,5.612,1.394c2.446,0,4.466-0.548,6.053-1.648
	c1.566-1.101,2.35-2.704,2.35-4.808c0-1.076-0.184-1.98-0.55-2.715C143.156,23.012,142.604,22.448,141.87,22.032z"/>
<path fill="#888888" d="M158.102,28.262c-0.087-0.63-0.542-0.447-0.757-0.347c-0.815,0.382-1.668,0.571-2.556,0.571
	c-0.833,0-1.419-0.206-1.762-0.623c-0.317-0.394-0.475-1.043-0.475-1.951c0,0,0-7.42,0-7.981c0-0.56,0.107-0.596,0.682-0.596
	c0.576,0,2.996,0,3.677,0c0.678,0,0.703-0.044,0.703-0.647c0-0.604,0-2.126,0-2.736c0-0.609-0.004-0.65-0.761-0.65
	c-0.754,0-3.021,0-3.646,0c-0.624,0-0.655,0.005-0.655-0.676c0-0.68,0.024-3.939,0-4.808c-0.026-0.87-0.072-0.884-0.89-0.783
	c-0.817,0.099-3.195,0.381-3.902,0.518c-0.706,0.133-0.747,0.153-0.747,0.956c0,0.8,0,3.529,0,4.144
	c0,0.618-0.148,0.649-0.715,0.649c-0.567,0-0.812,0-1.492,0c-0.683,0-0.658,0.103-0.658,0.673c0,0.383,0,1.775,0,2.645
	c0,0.419,0.25,0.716,0.593,0.716c0.536,0,1.298,0,1.666,0c0.608,0,0.606,0.135,0.606,0.625c0,0.487,0,8.695,0,8.695
	c0,2.177,0.511,3.755,1.537,4.733c1.052,1.003,2.57,1.502,4.551,1.502c1.124,0,2.201-0.146,3.229-0.439
	c0.69-0.194,1.266-0.391,1.726-0.596c0.237-0.105,0.601-0.262,0.503-0.99C158.462,30.134,158.189,28.892,158.102,28.262z"/>
<path fill="#FFFFFF" d="M72.134,29.957c0,0,0.002-0.345-0.021-0.593c-0.024-0.251-0.087-0.323-0.785-0.249
	c-0.146,0.023-0.271,0.037-0.382,0.037c-0.464,0-0.769-0.111-0.915-0.332c-0.146-0.22-0.218-0.599-0.218-1.133l0.072-8.001
	c0-2.346-0.624-4.059-1.869-5.14c-1.275-1.074-3.205-1.613-5.798-1.613c-4.513,0-7.167,1.713-7.956,5.127
	c-0.042,0.195,0.03,0.612,0.468,0.712c0.436,0.1,0.823,0.16,0.823,0.16l1.495,0.313c0,0,0.685,0.142,1.17,0.208
	c0.488,0.066,0.702-0.267,0.75-0.441c0.178-0.642,0.428-1.125,0.756-1.454c0.391-0.391,1.048-0.584,1.975-0.584
	c1.128,0,1.865,0.278,2.204,0.843c0.346,0.563,0.516,1.439,0.516,2.639c0,0,0.052,0.435-0.255,0.584
	c-0.308,0.146-0.457,0.115-0.662,0.119c-6.703,0.126-10.052,2.354-10.052,6.674c0,0.563,0.072,1.101,0.22,1.609
	c0.144,0.537,0.404,1.075,0.768,1.62c0.366,0.559,0.956,1.001,1.767,1.318c0.826,0.339,1.795,0.51,2.897,0.51
	c1.984,0,3.577-0.496,4.771-1.497c0.226-0.188,0.265-0.215,0.466-0.436c0.459-0.51,0.593-0.014,0.702,0.209
	c0.566,1.124,1.79,1.691,3.669,1.691c0.968,0,1.859-0.131,2.67-0.397c0.293-0.094,0.852-0.234,0.83-0.843
	c-0.021-0.608-0.032-0.712-0.032-0.712L72.134,29.957z M64.419,27.061c-0.002,0.861-0.331,0.966-0.51,1.097
	c-0.744,0.541-1.638,0.808-2.685,0.808c-1.494,0-2.237-0.696-2.237-2.091c0-0.899,0.392-1.535,1.174-1.908
	c0.809-0.39,2.305-0.618,3.375-0.624c1.07-0.005,0.865,0.3,0.881,0.624C64.437,25.29,64.421,26.203,64.419,27.061z"/>
</svg>
